<svg width="128" height="128" viewBox="0 0 128 128" fill="none" xmlns="http://www.w3.org/2000/svg">
<path d="M18.814 114.123L8.76001 1.35205H119.24L109.176 114.106L63.933 126.649L18.814 114.123Z" fill="white" fill-opacity="0.9"/>
<path d="M64.001 117.062L100.56 106.926L109.161 10.5718H64.001V117.062Z" fill="white"/>
<path d="M64.001 51.4291H82.303L83.567 37.2661H64.001V23.4351H98.683L98.351 27.1461L94.951 65.2601H64.001V51.4291Z" fill="black"/>
<path d="M64.083 87.3488L64.022 87.3668L48.619 83.2078L47.634 72.1768H33.752L35.689 93.8938L64.02 101.757L64.083 101.739V87.3488Z" fill="#151515"/>
<path d="M81.127 64.6748L79.461 83.1968L64.035 87.3608V101.751L92.389 93.8928L92.597 91.5558L95.003 64.6748H81.127Z" fill="black"/>
<path d="M64.048 23.4351V37.2661H30.64L30.363 34.1581L29.733 27.1461L29.402 23.4351H64.048ZM64.001 51.4311V65.2621H48.792L48.515 62.1541L47.884 55.1421L47.554 51.4311H64.001Z" fill="#151515"/>
</svg>
