<svg width="52" height="52" viewBox="0 0 52 52" fill="none" xmlns="http://www.w3.org/2000/svg">
<rect x="23.8316" width="4.33334" height="13" rx="2.16667" fill="#000000"/>
<rect y="28.163" width="4.33334" height="13" rx="2.16667" transform="rotate(-90 0 28.163)" fill="#000000"/>
<rect x="28.1684" y="52" width="4.33334" height="13" rx="2.16667" transform="rotate(180 28.1684 52)" fill="#000000"/>
<rect x="52" y="23.837" width="4.33334" height="13" rx="2.16667" transform="rotate(90 52 23.837)" fill="#000000"/>
<rect x="6.0879" y="9.15234" width="4.33334" height="13" rx="2.16667" transform="rotate(-45 6.0879 9.15234)" fill="#000000"/>
<rect x="9.14648" y="45.918" width="4.33334" height="13" rx="2.16667" transform="rotate(-135 9.14648 45.918)" fill="#000000"/>
<rect x="45.9122" y="42.8476" width="4.33334" height="13" rx="2.16667" transform="rotate(135 45.9122 42.8476)" fill="#000000"/>
<rect x="42.8536" y="6.08204" width="4.33334" height="13" rx="2.16667" transform="rotate(45 42.8536 6.08204)" fill="#000000"/>
</svg>
